<svg xmlns="http://www.w3.org/2000/svg" version="1.1" viewBox="0 0 500 350" width="500" height="350"><g stroke="none" stroke-opacity="1" stroke-dasharray="none" fill="none" fill-opacity="1"><path d="M150.2 72.9C160.5 87.6 156.9 107.9 142.2 118.2 127.6 128.5 107.3 124.9 97.1 110.2 86.8 95.5 90.4 75.3 105 65 119.7 54.7 139.9 58.2 150.2 72.9M123.2 141.4C126.3 141.4 129.5 141.1 132.7 140.6L140.5 154.6 150.8 150.9 148 134.9C149.4 134.2 150.8 133.3 152.1 132.4 153.5 131.4 154.7 130.5 155.9 129.4L169.7 137.7 176.8 129.2 166.5 116.9C168.1 114 169.5 111.1 170.6 108L186.6 108.2 188.5 97.4 173.4 91.8C173.4 88.7 173.1 85.5 172.5 82.4L186.4 74.6 182.7 64.2 166.9 67C166.1 65.7 165.3 64.3 164.4 63 163.4 61.6 162.4 60.3 161.3 59.1L169.7 45 161.3 37.9 148.7 48.5C145.9 46.9 143 45.6 140 44.6L140.3 28.5 129.5 26.6 123.9 41.8C120.8 41.8 117.7 42 114.6 42.6L106.5 28.1 96.1 31.8 99 48.2 99.4 48.1C97.9 48.9 96.5 49.8 95.1 50.8 93.8 51.8 92.4 52.8 91.2 53.9L77.1 45.4 69.9 53.8 80.6 66.6C79.1 69.3 77.8 72.1 76.8 75L60.6 74.7 58.6 85.6 73.9 91.2C73.9 94.3 74.1 97.5 74.7 100.6L60.3 108.6 64 119 80.4 116.1C81.1 117.5 82 118.8 82.9 120.2 83.8 121.4 84.7 122.6 85.7 123.7L77.3 137.7 85.7 144.9 98.2 134.4C101 136.1 104 137.5 107.1 138.5L106.8 154.5 117.7 156.5Z" fill="#999"/><path d="M205.3 178.1C215.5 192.8 212 213 197.3 223.3 182.6 233.6 162.4 230.1 152.1 215.4 141.9 200.7 145.4 180.4 160.1 170.1 174.8 159.8 195 163.4 205.3 178.1M178.2 246.5C181.4 246.6 184.6 246.3 187.7 245.7L195.6 259.8 205.9 256 203.1 240.1C204.5 239.3 205.9 238.5 207.2 237.5 208.5 236.6 209.8 235.6 211 234.6L224.8 242.8 231.9 234.4 221.5 222C223.2 219.2 224.6 216.2 225.6 213.1L241.7 213.4 243.6 202.5 228.4 197C228.4 193.8 228.2 190.7 227.6 187.5L241.5 179.8 237.8 169.4 222 172.2C221.2 170.8 220.4 169.5 219.4 168.2 218.5 166.8 217.5 165.5 216.4 164.2L224.8 150.2 216.4 143 203.7 153.7C201 152.1 198.1 150.8 195.1 149.7L195.4 133.7 184.5 131.7 179 146.9C175.9 146.9 172.7 147.2 169.6 147.8L161.5 133.2 151.2 136.9 154.1 153.4 154.5 153.3C153 154.1 151.6 155 150.2 156 148.8 156.9 147.5 157.9 146.3 159L132.1 150.6 125 159 135.7 171.8C134.2 174.4 132.9 177.2 131.8 180.1L115.7 179.9 113.7 190.8 129 196.3C129 199.5 129.2 202.6 129.8 205.7L115.3 213.8 119.1 224.2 135.4 221.3C136.2 222.7 137.1 224 138 225.3 138.8 226.6 139.8 227.8 140.7 228.9L132.4 242.9 140.8 250 153.3 239.5C156.1 241.2 159.1 242.6 162.1 243.7L161.9 259.7 172.7 261.6Z" fill="#999"/><path d="M321.7 151.4C331.9 166.1 328.4 186.3 313.7 196.6 299 206.9 278.8 203.4 268.5 188.7 258.3 174 261.9 153.7 276.5 143.4 291.2 133.1 311.4 136.7 321.7 151.4M294.6 219.8C297.8 219.9 301 219.6 304.1 219L312 233.1 322.3 229.3 319.5 213.4C320.9 212.6 322.3 211.8 323.6 210.8 324.9 209.9 326.2 208.9 327.4 207.9L341.2 216.1 348.3 207.7 337.9 195.4C339.6 192.5 341 189.5 342 186.5L358.1 186.7 360 175.8 344.8 170.3C344.9 167.1 344.6 164 344 160.8L357.9 153.1 354.2 142.7 338.4 145.5C337.6 144.1 336.8 142.8 335.8 141.5 334.9 140.1 333.9 138.8 332.8 137.5L341.2 123.5 332.8 116.3 320.1 127C317.4 125.4 314.5 124.1 311.5 123L311.8 107 300.9 105 295.4 120.2C292.3 120.2 289.1 120.5 286.1 121.1L278 106.5 267.6 110.3 270.5 126.7 270.9 126.6C269.4 127.4 268 128.3 266.6 129.3 265.2 130.2 263.9 131.3 262.7 132.3L248.5 123.9 241.4 132.3 252.1 145.1C250.6 147.7 249.3 150.6 248.2 153.4L232.1 153.2 230.1 164.1 245.4 169.6C245.4 172.8 245.6 175.9 246.2 179L231.7 187.1 235.5 197.5 251.8 194.6C252.6 196 253.5 197.3 254.4 198.6 255.2 199.9 256.2 201.1 257.1 202.2L248.8 216.2 257.2 223.3 269.7 212.9C272.5 214.5 275.5 215.9 278.5 217L278.3 233 289.1 235Z" fill="#41CF4B"/><path d="M403.1 239.9C413.3 254.6 409.7 274.8 395.1 285.1 380.4 295.4 360.2 291.8 349.9 277.1 339.7 262.5 343.2 242.2 357.9 231.9 372.6 221.6 392.8 225.2 403.1 239.9M376 308.3C379.2 308.3 382.4 308.1 385.5 307.5L393.3 321.5 403.7 317.8 400.9 301.9C402.3 301.1 403.7 300.2 405 299.3 406.3 298.4 407.6 297.4 408.8 296.4L422.5 304.6 429.6 296.2 419.3 283.8C421 281 422.4 278 423.4 274.9L439.4 275.2 441.4 264.3 426.2 258.8C426.2 255.6 425.9 252.4 425.4 249.3L439.3 241.5 435.5 231.2 419.8 234C419 232.6 418.1 231.3 417.2 229.9 416.3 228.6 415.2 227.3 414.2 226L422.6 211.9 414.2 204.8 401.5 215.5C398.8 213.9 395.9 212.5 392.9 211.5L393.1 195.5 382.3 193.5 376.8 208.7C373.6 208.7 370.5 209 367.4 209.5L359.3 195 349 198.7 351.8 215.2 352.2 215.1C350.8 215.9 349.4 216.8 348 217.7 346.6 218.7 345.3 219.7 344 220.8L329.9 212.3 322.8 220.8 333.5 233.5C331.9 236.2 330.6 239 329.6 241.9L313.4 241.7 311.5 252.5 326.8 258.1C326.7 261.3 327 264.4 327.6 267.5L313.1 275.6 316.8 286 333.2 283.1C334 284.4 334.8 285.8 335.7 287.1 336.6 288.3 337.5 289.5 338.5 290.7L330.2 304.7 338.5 311.8 351 301.3C353.9 303 356.8 304.4 359.9 305.5L359.7 321.5 370.5 323.4Z" fill="#999"/></g></svg>