<svg xmlns="http://www.w3.org/2000/svg" version="1.1" viewBox="0 0 500 350" width="500" height="350"><g stroke="none" stroke-opacity="1" stroke-dasharray="none" fill="none" fill-opacity="1"><path d="M126.6 173.8C131.4 178.5 131.4 186.2 126.6 191 121.9 195.7 114.2 195.7 109.5 191 104.7 186.2 104.7 178.5 109.5 173.8 114.2 169.1 121.9 169.1 126.6 173.8ZM248.7 113.6C269.6 113.9 290.3 120.1 290.3 120.1 286.9 129 290.2 121 286.7 129.3 286.7 129.3 264.6 126.8 249 126.7 233.3 126.7 215.8 128 215.1 128.3 214.4 128.6 212.6 122.8 210.8 119.3 210.6 118.8 227.8 113.4 248.7 113.6ZM252.7 303.9C253.7 303.9 254.8 303.9 255.9 303.9L274.7 303.2C280.8 303 284.7 301.9 285.9 307.9L287 319.2C288.1 325.2 293.7 323.7 299.9 323.8L326.6 324.1C328.4 324.1 345.8 324.8 347.3 323.7 351.3 320.8 334.6 305.7 334.4 289.3 334.4 289.3 336 283.4 343.4 276.9 343.4 276.9 354.7 265.5 364.3 249.8 373.8 234 375.9 222.7 375.9 222.7 379.2 212.8 381.7 188.3 377.2 170.3 372.7 152.2 362 140.3 353 133.5 343.9 126.7 336.2 122.1 315 112.1 293.8 102 263 96.8 242.4 96.8 221.7 96.8 183.8 104.3 170.5 110.2 157.1 116.1 158.9 111.6 154.4 107.9L154 107.5C149.4 103.9 144.3 100.9 138.9 98.8L137.8 98.4 137.8 98.4C132.4 96.3 126.6 95.3 120.9 95.5 115.1 95.7 105.9 98 99.4 100.8 92.9 103.5 88.7 105.7 84.8 108.6L82 110.7C81.1 111.3 80.6 112.3 80.7 113.3 80.7 115.1 82.2 116.4 83.9 116.4L84.2 116.4C90.7 116.2 99 116.8 106.6 123.6 114.2 130.3 120 138.8 116.6 142.1L104.8 155.6C99.6 160.6 83.9 172.2 77.2 174.9L65.9 179.3C57.1 182.8 58.3 189 58.9 198.5L59.5 209C60 217.5 63.6 225.5 69.5 231.5L77.5 239.4C78.3 240.3 79.6 240.8 80.8 240.8 82.1 240.8 83.4 241.2 84.4 241.9 84.4 241.9 100.7 254.4 108.7 260.3 116.6 266.1 129 272.3 138 277.4 146.9 282.5 162.3 285.5 162.3 291.5 162.3 291.5 163.8 296.9 160.5 306.1 157.3 315.2 151.1 321.6 151 322.5 151 325.4 159.6 324.3 162.5 324.3L214.2 324.2C220.7 324.3 222.1 320.4 223.8 314.1 225.5 307.8 224.6 303.8 231.1 303.9Z" fill="#999"/><path d="M268.6 47.3C264.5 44.8 262 42 252 42 242 42 232 47 232 57 232 67 242 70.3 252 72 262 73.7 272 77 272 87 272 97 262 102 252 102 242 102 236.5 98.9 232 95.9" stroke="#41CF4B" stroke-linecap="round" stroke-linejoin="round" stroke-width="15"/><line x1="252" y1="42" x2="252" y2="32" stroke="#41CF4B" stroke-linecap="round" stroke-linejoin="round" stroke-width="7"/><line x1="252" y1="102" x2="252" y2="112" stroke="#41CF4B" stroke-linecap="round" stroke-linejoin="round" stroke-width="7"/></g></svg>