<?xml version="1.0" encoding="UTF-8" standalone="no"?>
<!DOCTYPE svg PUBLIC "-//W3C//DTD SVG 1.1//EN" "http://www.w3.org/Graphics/SVG/1.1/DTD/svg11.dtd">
<svg xmlns="http://www.w3.org/2000/svg" xmlns:xl="http://www.w3.org/1999/xlink" version="1.1" viewBox="0 0 500 350" width="500pt" height="350pt" xmlns:dc="http://purl.org/dc/elements/1.1/"><metadata> Produced by OmniGraffle 6.5.3 <dc:date>2016-07-07 01:58:41 +0000</dc:date></metadata><defs/><g stroke="none" stroke-opacity="1" stroke-dasharray="none" fill="none" fill-opacity="1"><title>Smart Home</title><g><title>Layer 1</title><path d="M 311 119.43555 L 311 119.435545 L 311 230.62108 C 311 230.62108 311 230.62108 311 230.62108 C 311 247.34363 324.05749 261.01643 340.53295 262 L 455.46704 262 C 471.9425 261.01644 485 247.34363 485 230.62108 L 485 119.43555 C 485 102.07417 470.92583 88 453.56445 88 L 342.43555 88 C 325.07417 88 311 102.07417 311 119.435545 C 311 119.435545 311 119.435545 311 119.435545 Z" fill="#333"/><path d="M 311 119.43555 L 311 119.435545 L 311 230.62108 C 311 230.62108 311 230.62108 311 230.62108 C 311 247.34363 324.05749 261.01643 340.53295 262 L 455.46704 262 C 471.9425 261.01644 485 247.34363 485 230.62108 L 485 119.43555 C 485 102.07417 470.92583 88 453.56445 88 L 342.43555 88 C 325.07417 88 311 102.07417 311 119.435545 C 311 119.435545 311 119.435545 311 119.435545 Z" stroke="#38d142" stroke-linecap="round" stroke-linejoin="round" stroke-width="8"/><path d="M 423.542 151.48065 L 452.17224 151.477 C 455.65863 151.38645 459.11784 150.01079 461.7786 147.35002 C 467.28762 141.84103 467.28762 132.9092 461.7786 127.400206 C 459.46067 125.08226 456.53678 123.739605 453.51685 123.37223 C 453.94346 120.52311 453.06001 117.515694 450.86653 115.322224 C 448.1732 112.62889 444.2527 111.91069 440.9049 113.16764 C 440.2508 112.109713 439.46491 111.11015 438.54723 110.192474 C 432.1573 103.80251 421.79718 103.80251 415.40725 110.192474 C 411.7195 113.880215 410.16 118.89028 410.72878 123.6964 L 410.72878 123.6964 C 408.34057 124.297594 406.07902 125.532195 404.21102 127.400206 C 402.2799 129.33133 401.0257 131.68304 400.44845 134.16048 Z" fill="#38d142"/><path d="M 381.77353 123.31463 L 433.45742 162.07755 L 433.45742 172.41433 L 410.06508 154.84989 L 381.77353 133.65141 L 330.08964 172.41433 L 330.08964 162.07755 Z" fill="#38d142"/><path d="M 348.7922 133.65141 L 361.09997 133.65141 L 361.05903 141.872656 L 348.7922 151.61337 Z" fill="#38d142"/><path d="M 337.84222 169.46216 L 381.82335 136.83765 L 425.70484 169.46216 L 425.70484 235.90002 L 395.01095 235.90003 L 395.01095 192.40003 L 367.82345 192.40003 L 367.82345 235.90003 L 337.84222 235.90002 Z" fill="#38d142"/><path d="M 167 90 L 250 90 L 250 136 L 250 160 L 270 160 L 307 160" stroke="#38d142" stroke-linecap="butt" stroke-linejoin="round" stroke-width="8"/><path d="M 167 255 L 215 255 L 250 255 L 250 213 L 250 190 L 307 190" stroke="#38d142" stroke-linecap="butt" stroke-linejoin="round" stroke-width="8"/><path d="M 15 42.09961 L 15 42.099608 L 15 137.94921 C 15 137.94921 15 137.94921 15 137.94921 C 15 152.3652 26.256453 164.1521 40.459443 165 L 139.54056 165 C 153.74355 164.1521 165 152.3652 165 137.94921 L 165 42.09961 C 165 27.132908 152.86709 15 137.90039 15 L 42.09961 15 C 27.132909 15 15.000001 27.132908 15 42.099608 C 15 42.099608 15 42.099608 15 42.099608 Z" stroke="#aaa" stroke-linecap="round" stroke-linejoin="round" stroke-width="4"/><path d="M 95.19824 60.480408 L 99.39146 56.28719 C 100.172507 55.50614 101.438837 55.50614 102.219885 56.28719 L 123.712814 77.780117 C 124.49386 78.561166 124.49386 79.827496 123.712814 80.608544 C 123.712814 80.608544 123.712814 80.608544 123.712814 80.608544 L 119.519594 84.801764 C 118.738546 85.58281 117.472216 85.58281 116.69117 84.801764 L 95.19824 63.308835 C 94.41719 62.527786 94.41719 61.261457 95.19824 60.480408 Z" fill="#38d142"/><path d="M 95.19824 60.480408 L 99.39146 56.28719 C 100.172507 55.50614 101.438837 55.50614 102.219885 56.28719 L 123.712814 77.780117 C 124.49386 78.561166 124.49386 79.827496 123.712814 80.608544 C 123.712814 80.608544 123.712814 80.608544 123.712814 80.608544 L 119.519594 84.801764 C 118.738546 85.58281 117.472216 85.58281 116.69117 84.801764 L 95.19824 63.308835 C 94.41719 62.527786 94.41719 61.261457 95.19824 60.480408 Z" stroke="#38d142" stroke-linecap="round" stroke-linejoin="round" stroke-width="1"/><path d="M 99.198413 62.83144 L 117.168564 80.80159 C 117.94961 81.582638 117.94961 82.848967 117.168564 83.630016 C 117.02424 83.77434 116.858674 83.89572 116.67762 83.989944 L 102.19285 91.527854 C 101.41862 91.930765 100.472525 91.785084 99.855367 91.167926 L 88.832076 80.144636 C 88.21492 79.527477 88.06924 78.581384 88.47215 77.807155 L 96.01006 63.322384 C 96.519965 62.342553 97.727636 61.961604 98.70747 62.47151 C 98.888523 62.565732 99.05409 62.687114 99.198413 62.83144 Z" fill="#38d142"/><path d="M 99.198413 62.83144 L 117.168564 80.80159 C 117.94961 81.582638 117.94961 82.848967 117.168564 83.630016 C 117.02424 83.77434 116.858674 83.89572 116.67762 83.989944 L 102.19285 91.527854 C 101.41862 91.930765 100.472525 91.785084 99.855367 91.167926 L 88.832076 80.144636 C 88.21492 79.527477 88.06924 78.581384 88.47215 77.807155 L 96.01006 63.322384 C 96.519965 62.342553 97.727636 61.961604 98.70747 62.47151 C 98.888523 62.565732 99.05409 62.687114 99.198413 62.83144 Z" stroke="#38d142" stroke-linecap="round" stroke-linejoin="round" stroke-width="1"/><path d="M 86.81326 82.806917 L 86.81326 82.806917 C 87.54389 82.07629 88.72847 82.07629 89.4591 82.806917 L 97.193085 90.540905 C 97.923713 91.27153 97.923713 92.456115 97.193085 93.18674 C 97.193085 93.18674 97.193085 93.18674 97.193085 93.18674 L 97.193085 93.18674 C 96.46246 93.91737 95.277875 93.91737 94.54725 93.18674 L 86.81326 85.452755 C 86.08263 84.722127 86.08263 83.537545 86.81326 82.806917 C 86.81326 82.806917 86.81326 82.806917 86.81326 82.806917 Z" fill="#38d142"/><path d="M 86.81326 82.806917 L 86.81326 82.806917 C 87.54389 82.07629 88.72847 82.07629 89.4591 82.806917 L 97.193085 90.540905 C 97.923713 91.27153 97.923713 92.456115 97.193085 93.18674 C 97.193085 93.18674 97.193085 93.18674 97.193085 93.18674 L 97.193085 93.18674 C 96.46246 93.91737 95.277875 93.91737 94.54725 93.18674 L 86.81326 85.452755 C 86.08263 84.722127 86.08263 83.537545 86.81326 82.806917 C 86.81326 82.806917 86.81326 82.806917 86.81326 82.806917 Z" stroke="#38d142" stroke-linecap="round" stroke-linejoin="round" stroke-width="1"/><path d="M 110.091545 60.342736 L 116.96055 53.473734 C 117.396114 53.038167 118.10231 53.038167 118.53787 53.473734 C 118.53787 53.473734 118.53787 53.473734 118.53787 53.473734 L 118.53787 53.473734 C 118.97344 53.9093 118.97344 54.615493 118.53787 55.05106 L 111.66887 61.920062 C 111.233305 62.35563 110.52711 62.35563 110.091545 61.920062 C 110.091545 61.920062 110.091545 61.920062 110.091545 61.920062 L 110.091545 61.920062 C 109.65598 61.484496 109.65598 60.778303 110.091545 60.342736 Z" fill="#38d142"/><path d="M 110.091545 60.342736 L 116.96055 53.473734 C 117.396114 53.038167 118.10231 53.038167 118.53787 53.473734 C 118.53787 53.473734 118.53787 53.473734 118.53787 53.473734 L 118.53787 53.473734 C 118.97344 53.9093 118.97344 54.615493 118.53787 55.05106 L 111.66887 61.920062 C 111.233305 62.35563 110.52711 62.35563 110.091545 61.920062 C 110.091545 61.920062 110.091545 61.920062 110.091545 61.920062 L 110.091545 61.920062 C 109.65598 61.484496 109.65598 60.778303 110.091545 60.342736 Z" stroke="#38d142" stroke-linecap="round" stroke-linejoin="round" stroke-width="1"/><path d="M 118.07994 68.33113 L 124.94894 61.46213 C 125.38451 61.026562 126.0907 61.026562 126.52627 61.46213 C 126.52627 61.46213 126.52627 61.46213 126.52627 61.46213 L 126.52627 61.46213 C 126.961835 61.897695 126.961835 62.60389 126.52627 63.039455 L 119.657266 69.908457 C 119.2217 70.344024 118.51551 70.344024 118.07994 69.908457 C 118.07994 69.908457 118.07994 69.908457 118.07994 69.908457 L 118.07994 69.908457 C 117.64437 69.47289 117.64437 68.766698 118.07994 68.33113 Z" fill="#38d142"/><path d="M 118.07994 68.33113 L 124.94894 61.46213 C 125.38451 61.026562 126.0907 61.026562 126.52627 61.46213 C 126.52627 61.46213 126.52627 61.46213 126.52627 61.46213 L 126.52627 61.46213 C 126.961835 61.897695 126.961835 62.60389 126.52627 63.039455 L 119.657266 69.908457 C 119.2217 70.344024 118.51551 70.344024 118.07994 69.908457 C 118.07994 69.908457 118.07994 69.908457 118.07994 69.908457 L 118.07994 69.908457 C 117.64437 69.47289 117.64437 68.766698 118.07994 68.33113 Z" stroke="#38d142" stroke-linecap="round" stroke-linejoin="round" stroke-width="1"/><line x1="90.680254" y1="89.31975" x2="57.46793" y2="122.53207" stroke="#38d142" stroke-linecap="round" stroke-linejoin="round" stroke-width="8"/><path d="M 15 213.59961 L 15 213.59961 L 15 309.44921 C 15 309.44921 15 309.44921 15 309.44921 C 15 323.8652 26.256453 335.6521 40.459443 336.5 L 139.54056 336.5 C 153.74355 335.6521 165 323.8652 165 309.44921 L 165 213.59961 C 165 198.63291 152.86709 186.5 137.90039 186.5 L 42.09961 186.5 C 27.132909 186.5 15.000001 198.63291 15 213.59961 C 15 213.59961 15 213.59961 15 213.59961 Z" stroke="#aaa" stroke-linecap="round" stroke-linejoin="round" stroke-width="4"/><rect x="99" y="216.75654" width="15.44668" height="86.39336" stroke="#38d142" stroke-linecap="round" stroke-linejoin="round" stroke-width="4"/><path d="M 99.05433 207.23441 L 99.05433 311.66097 L 62.595575 303.08954 L 62.595575 216.6509 Z" stroke="#38d142" stroke-linecap="round" stroke-linejoin="round" stroke-width="4"/><ellipse cx="91.88632" cy="263.15996" rx="1.7354153" ry="3.0181135" fill="#38d142"/><ellipse cx="91.88632" cy="263.15996" rx="1.7354153" ry="3.0181135" stroke="#38d142" stroke-linecap="round" stroke-linejoin="round" stroke-width="1"/></g></g></svg>
