<?xml version="1.0" encoding="UTF-8" standalone="no"?>
<!DOCTYPE svg PUBLIC "-//W3C//DTD SVG 1.1//EN" "http://www.w3.org/Graphics/SVG/1.1/DTD/svg11.dtd">
<svg xmlns="http://www.w3.org/2000/svg" xmlns:xl="http://www.w3.org/1999/xlink" version="1.1" viewBox="0 0 500 350" width="500pt" height="350pt" xmlns:dc="http://purl.org/dc/elements/1.1/"><metadata> Produced by OmniGraffle 6.5.3 <dc:date>2016-07-06 20:30:11 +0000</dc:date></metadata><defs/><g stroke="none" stroke-opacity="1" stroke-dasharray="none" fill="none" fill-opacity="1"><title>Smart Garage</title><g><title>Layer 1</title><path d="M 15 212.09961 L 15 212.09961 L 15 307.94921 C 15 307.94921 15 307.94921 15 307.94921 C 15 322.3652 26.256453 334.1521 40.459443 335 L 139.54056 335 C 153.74355 334.1521 165 322.3652 165 307.94921 L 165 212.09961 C 165 197.13291 152.86709 185 137.90039 185 L 42.09961 185 C 27.132909 185 15.000001 197.13291 15 212.09961 C 15 212.09961 15 212.09961 15 212.09961 Z" stroke="#aaa" stroke-linecap="round" stroke-linejoin="round" stroke-width="4"/><path d="M 98.73096 288.11864 L 98.73096 210.29644 C 98.73096 200.57361 92.3852 198.92229 89.94939 198.88391 C 87.513577 198.84554 81.269044 200.57361 81.269044 210.29644 L 81.269044 288.11864 C 79.926804 288.88331 78.66349 289.83821 77.518365 290.98334 C 70.62491 297.87676 70.62491 309.0532 77.518365 315.94662 C 84.411785 322.84007 95.58822 322.84007 102.48164 315.94662 C 109.37509 309.0532 109.37509 297.87676 102.48164 290.98334 C 101.33651 289.83821 100.073197 288.88331 98.73096 288.11864 Z" stroke="#38d142" stroke-linecap="round" stroke-linejoin="round" stroke-width="4"/><line x1="97.931214" y1="210.14496" x2="91.51843" y2="210.14496" stroke="#38d142" stroke-linecap="round" stroke-linejoin="round" stroke-width="4"/><line x1="97.931214" y1="217.23096" x2="91.51843" y2="217.23096" stroke="#38d142" stroke-linecap="round" stroke-linejoin="round" stroke-width="4"/><line x1="97.931214" y1="224.31695" x2="91.51843" y2="224.31695" stroke="#38d142" stroke-linecap="round" stroke-linejoin="round" stroke-width="4"/><line x1="97.931214" y1="231.40295" x2="91.51843" y2="231.40295" stroke="#38d142" stroke-linecap="round" stroke-linejoin="round" stroke-width="4"/><circle cx="90" cy="303.88759" r="11.874101" fill="#38d142"/><circle cx="90" cy="303.88759" r="11.874101" stroke="#38d142" stroke-linecap="round" stroke-linejoin="round" stroke-width="1"/><line x1="89.873466" y1="251.01597" x2="89.873466" y2="303.13777" stroke="#38d142" stroke-linecap="round" stroke-linejoin="round" stroke-width="8"/><path d="M 90 41.634809 L 44.72837 75.330913 L 44.72837 138.36519 L 135.27163 138.36519 L 135.27163 75.330913 Z" stroke="#38d142" stroke-linecap="round" stroke-linejoin="round" stroke-width="4"/><rect x="55.895373" y="86.423543" width="68.088533" height="51.94165" stroke="#38d142" stroke-linecap="round" stroke-linejoin="round" stroke-width="4"/><line x1="56.34809" y1="119.50201" x2="123.682096" y2="119.50201" stroke="#38d142" stroke-linecap="round" stroke-linejoin="round" stroke-width="4"/><line x1="63.983905" y1="111.72661" x2="116.499" y2="111.72661" stroke="#38d142" stroke-linecap="square" stroke-linejoin="round" stroke-width="4"/><line x1="63.983905" y1="102.636445" x2="116.499" y2="102.636445" stroke="#38d142" stroke-linecap="square" stroke-linejoin="round" stroke-width="4"/><line x1="63.983905" y1="93.54628" x2="116.499" y2="93.54628" stroke="#38d142" stroke-linecap="square" stroke-linejoin="round" stroke-width="4"/><path d="M 15 42.09961 L 15 42.099608 L 15 137.94921 C 15 137.94921 15 137.94921 15 137.94921 C 15 152.3652 26.256453 164.1521 40.459443 165 L 139.54056 165 C 153.74355 164.1521 165 152.3652 165 137.94921 L 165 42.09961 C 165 27.132908 152.86709 15 137.90039 15 L 42.09961 15 C 27.132909 15 15.000001 27.132908 15 42.099608 C 15 42.099608 15 42.099608 15 42.099608 Z" stroke="#aaa" stroke-linecap="round" stroke-linejoin="round" stroke-width="4"/><path d="M 311 119.43555 L 311 119.435545 L 311 230.62108 C 311 230.62108 311 230.62108 311 230.62108 C 311 247.34363 324.05749 261.01643 340.53295 262 L 455.46704 262 C 471.9425 261.01644 485 247.34363 485 230.62108 L 485 119.43555 C 485 102.07417 470.92583 88 453.56445 88 L 342.43555 88 C 325.07417 88 311 102.07417 311 119.435545 C 311 119.435545 311 119.435545 311 119.435545 Z" fill="#333"/><path d="M 311 119.43555 L 311 119.435545 L 311 230.62108 C 311 230.62108 311 230.62108 311 230.62108 C 311 247.34363 324.05749 261.01643 340.53295 262 L 455.46704 262 C 471.9425 261.01644 485 247.34363 485 230.62108 L 485 119.43555 C 485 102.07417 470.92583 88 453.56445 88 L 342.43555 88 C 325.07417 88 311 102.07417 311 119.435545 C 311 119.435545 311 119.435545 311 119.435545 Z" stroke="#38d142" stroke-linecap="round" stroke-linejoin="round" stroke-width="8"/><path d="M 423.542 151.48065 L 452.17224 151.477 C 455.65863 151.38645 459.11784 150.01079 461.7786 147.35002 C 467.28762 141.84103 467.28762 132.9092 461.7786 127.400206 C 459.46067 125.08226 456.53678 123.739605 453.51685 123.37223 C 453.94346 120.52311 453.06001 117.515694 450.86653 115.322224 C 448.1732 112.62889 444.2527 111.91069 440.9049 113.16764 C 440.2508 112.109713 439.46491 111.11015 438.54723 110.192474 C 432.1573 103.80251 421.79718 103.80251 415.40725 110.192474 C 411.7195 113.880215 410.16 118.89028 410.72878 123.6964 L 410.72878 123.6964 C 408.34057 124.297594 406.07902 125.532195 404.21102 127.400206 C 402.2799 129.33133 401.0257 131.68304 400.44845 134.16048 Z" fill="#38d142"/><path d="M 381.77353 123.31463 L 433.45742 162.07755 L 433.45742 172.41433 L 410.06508 154.84989 L 381.77353 133.65141 L 330.08964 172.41433 L 330.08964 162.07755 Z" fill="#38d142"/><path d="M 348.7922 133.65141 L 361.09997 133.65141 L 361.05903 141.872656 L 348.7922 151.61337 Z" fill="#38d142"/><path d="M 337.84222 169.46216 L 381.82335 136.83765 L 425.70484 169.46216 L 425.70484 235.90002 L 395.01095 235.90003 L 395.01095 192.40003 L 367.82345 192.40003 L 367.82345 235.90003 L 337.84222 235.90002 Z" fill="#38d142"/><path d="M 167 90 L 250 90 L 250 136 L 250 160 L 270 160 L 307 160" stroke="#38d142" stroke-linecap="butt" stroke-linejoin="round" stroke-width="8"/><path d="M 167 255 L 215 255 L 250 255 L 250 213 L 250 190 L 307 190" stroke="#38d142" stroke-linecap="butt" stroke-linejoin="round" stroke-width="8"/></g></g></svg>
