<?xml version="1.0" encoding="UTF-8" standalone="no"?>
<!DOCTYPE svg PUBLIC "-//W3C//DTD SVG 1.1//EN" "http://www.w3.org/Graphics/SVG/1.1/DTD/svg11.dtd">
<svg xmlns="http://www.w3.org/2000/svg" xmlns:xl="http://www.w3.org/1999/xlink" version="1.1" viewBox="0 0 500 350" width="500pt" height="350pt" xmlns:dc="http://purl.org/dc/elements/1.1/"><metadata> Produced by OmniGraffle 6.5.3 <dc:date>2016-07-07 02:00:48 +0000</dc:date></metadata><defs/><g stroke="none" stroke-opacity="1" stroke-dasharray="none" fill="none" fill-opacity="1"><title>Smart Home 2</title><g><title>Layer 1</title><path d="M 311 119.43555 L 311 119.435545 L 311 230.62108 C 311 230.62108 311 230.62108 311 230.62108 C 311 247.34363 324.05749 261.01643 340.53295 262 L 455.46704 262 C 471.9425 261.01644 485 247.34363 485 230.62108 L 485 119.43555 C 485 102.07417 470.92583 88 453.56445 88 L 342.43555 88 C 325.07417 88 311 102.07417 311 119.435545 C 311 119.435545 311 119.435545 311 119.435545 Z" fill="#333"/><path d="M 311 119.43555 L 311 119.435545 L 311 230.62108 C 311 230.62108 311 230.62108 311 230.62108 C 311 247.34363 324.05749 261.01643 340.53295 262 L 455.46704 262 C 471.9425 261.01644 485 247.34363 485 230.62108 L 485 119.43555 C 485 102.07417 470.92583 88 453.56445 88 L 342.43555 88 C 325.07417 88 311 102.07417 311 119.435545 C 311 119.435545 311 119.435545 311 119.435545 Z" stroke="#38d142" stroke-linecap="round" stroke-linejoin="round" stroke-width="8"/><path d="M 423.542 151.48065 L 452.17224 151.477 C 455.65863 151.38645 459.11784 150.01079 461.7786 147.35002 C 467.28762 141.84103 467.28762 132.9092 461.7786 127.400206 C 459.46067 125.08226 456.53678 123.739605 453.51685 123.37223 C 453.94346 120.52311 453.06001 117.515694 450.86653 115.322224 C 448.1732 112.62889 444.2527 111.91069 440.9049 113.16764 C 440.2508 112.109713 439.46491 111.11015 438.54723 110.192474 C 432.1573 103.80251 421.79718 103.80251 415.40725 110.192474 C 411.7195 113.880215 410.16 118.89028 410.72878 123.6964 L 410.72878 123.6964 C 408.34057 124.297594 406.07902 125.532195 404.21102 127.400206 C 402.2799 129.33133 401.0257 131.68304 400.44845 134.16048 Z" fill="#38d142"/><path d="M 381.77353 123.31463 L 433.45742 162.07755 L 433.45742 172.41433 L 410.06508 154.84989 L 381.77353 133.65141 L 330.08964 172.41433 L 330.08964 162.07755 Z" fill="#38d142"/><path d="M 348.7922 133.65141 L 361.09997 133.65141 L 361.05903 141.872656 L 348.7922 151.61337 Z" fill="#38d142"/><path d="M 337.84222 169.46216 L 381.82335 136.83765 L 425.70484 169.46216 L 425.70484 235.90002 L 395.01095 235.90003 L 395.01095 192.40003 L 367.82345 192.40003 L 367.82345 235.90003 L 337.84222 235.90002 Z" fill="#38d142"/><path d="M 167 90 L 250 90 L 250 136 L 250 160 L 270 160 L 307 160" stroke="#38d142" stroke-linecap="butt" stroke-linejoin="round" stroke-width="8"/><path d="M 167 255 L 215 255 L 250 255 L 250 213 L 250 190 L 307 190" stroke="#38d142" stroke-linecap="butt" stroke-linejoin="round" stroke-width="8"/><path d="M 15 42.09961 L 15 42.099608 L 15 137.94921 C 15 137.94921 15 137.94921 15 137.94921 C 15 152.3652 26.256453 164.1521 40.459443 165 L 139.54056 165 C 153.74355 164.1521 165 152.3652 165 137.94921 L 165 42.09961 C 165 27.132908 152.86709 15 137.90039 15 L 42.09961 15 C 27.132909 15 15.000001 27.132908 15 42.099608 C 15 42.099608 15 42.099608 15 42.099608 Z" stroke="#aaa" stroke-linecap="round" stroke-linejoin="round" stroke-width="4"/><rect x="80.2666" y="82.002013" width="19.466801" height="52.816902" fill="#38d142"/><rect x="80.2666" y="82.002013" width="19.466801" height="52.816902" stroke="#38d142" stroke-linecap="round" stroke-linejoin="round" stroke-width="1"/><rect x="83.88833" y="66.60966" width="12.22334" height="25.352113" fill="#38d142"/><rect x="83.88833" y="66.60966" width="12.22334" height="25.352113" stroke="#38d142" stroke-linecap="round" stroke-linejoin="round" stroke-width="1"/><rect x="80.2666" y="66.60966" width="19.466801" height="6.0362174" fill="#38d142"/><rect x="80.2666" y="66.60966" width="19.466801" height="6.0362174" stroke="#38d142" stroke-linecap="round" stroke-linejoin="round" stroke-width="1"/><circle cx="74.79628" cy="77.022134" r="2.2635851" fill="#38d142"/><circle cx="74.79628" cy="77.022134" r="2.2635851" stroke="#38d142" stroke-linecap="round" stroke-linejoin="round" stroke-width="1"/><circle cx="55.895373" cy="77.022134" r="2.2635851" fill="#38d142"/><circle cx="55.895373" cy="77.022134" r="2.2635851" stroke="#38d142" stroke-linecap="round" stroke-linejoin="round" stroke-width="1"/><circle cx="55.895373" cy="89.69819" r="2.2635851" fill="#38d142"/><circle cx="55.895373" cy="89.69819" r="2.2635851" stroke="#38d142" stroke-linecap="round" stroke-linejoin="round" stroke-width="1"/><circle cx="55.895373" cy="64.346077" r="2.2635851" fill="#38d142"/><circle cx="55.895373" cy="64.346077" r="2.2635851" stroke="#38d142" stroke-linecap="round" stroke-linejoin="round" stroke-width="1"/><circle cx="65.345826" cy="70.684105" r="2.2635851" fill="#38d142"/><circle cx="65.345826" cy="70.684105" r="2.2635851" stroke="#38d142" stroke-linecap="round" stroke-linejoin="round" stroke-width="1"/><circle cx="65.345826" cy="83.36016" r="2.2635851" fill="#38d142"/><circle cx="65.345826" cy="83.36016" r="2.2635851" stroke="#38d142" stroke-linecap="round" stroke-linejoin="round" stroke-width="1"/><circle cx="105.203724" cy="77.022134" r="2.2635851" fill="#38d142"/><circle cx="105.203724" cy="77.022134" r="2.2635851" stroke="#38d142" stroke-linecap="round" stroke-linejoin="round" stroke-width="1"/><circle cx="124.10463" cy="77.022134" r="2.2635851" fill="#38d142"/><circle cx="124.10463" cy="77.022134" r="2.2635851" stroke="#38d142" stroke-linecap="round" stroke-linejoin="round" stroke-width="1"/><circle cx="124.10463" cy="64.346077" r="2.2635851" fill="#38d142"/><circle cx="124.10463" cy="64.346077" r="2.2635851" stroke="#38d142" stroke-linecap="round" stroke-linejoin="round" stroke-width="1"/><circle cx="124.10463" cy="89.69819" r="2.2635851" fill="#38d142"/><circle cx="124.10463" cy="89.69819" r="2.2635851" stroke="#38d142" stroke-linecap="round" stroke-linejoin="round" stroke-width="1"/><circle cx="114.654177" cy="83.36016" r="2.2635851" fill="#38d142"/><circle cx="114.654177" cy="83.36016" r="2.2635851" stroke="#38d142" stroke-linecap="round" stroke-linejoin="round" stroke-width="1"/><circle cx="114.654177" cy="70.684105" r="2.2635851" fill="#38d142"/><circle cx="114.654177" cy="70.684105" r="2.2635851" stroke="#38d142" stroke-linecap="round" stroke-linejoin="round" stroke-width="1"/><path d="M 114.49937 129.11474 C 115.031744 122.763095 116.752135 112.30791 122.23814 104.45674 C 116.91304 107.55805 113.698516 113.33439 111.76048 119.00991 C 110.786155 114.32166 109.01357 109.72615 105.833406 107.052315 C 108.44033 112.616606 108.612795 120.55121 108.25317 126.493825 C 107.109456 122.6277 105.267446 118.40688 102.39276 116.28773 C 107.176463 122.256036 106.074855 134.66801 106.074855 134.66801 L 116.81932 134.66801 C 116.81932 134.66801 115.62717 128.32998 126.91559 118.03823 C 120.03263 121.615974 116.405184 125.81813 114.49937 129.11474 Z" fill="#38d142"/><path d="M 114.49937 129.11474 C 115.031744 122.763095 116.752135 112.30791 122.23814 104.45674 C 116.91304 107.55805 113.698516 113.33439 111.76048 119.00991 C 110.786155 114.32166 109.01357 109.72615 105.833406 107.052315 C 108.44033 112.616606 108.612795 120.55121 108.25317 126.493825 C 107.109456 122.6277 105.267446 118.40688 102.39276 116.28773 C 107.176463 122.256036 106.074855 134.66801 106.074855 134.66801 L 116.81932 134.66801 C 116.81932 134.66801 115.62717 128.32998 126.91559 118.03823 C 120.03263 121.615974 116.405184 125.81813 114.49937 129.11474 Z" stroke="#38d142" stroke-linecap="round" stroke-linejoin="round" stroke-width="1"/><path d="M 65.50063 129.11474 C 64.968258 122.763095 63.247867 112.30791 57.761863 104.45674 C 63.08696 107.55805 66.301486 113.33439 68.239523 119.00991 C 69.213848 114.32166 70.986435 109.72615 74.166596 107.052315 C 71.55967 112.616606 71.387207 120.55121 71.74683 126.493825 C 72.890546 122.6277 74.732556 118.40688 77.60724 116.28773 C 72.82354 122.256036 73.925147 134.66801 73.925147 134.66801 L 63.18068 134.66801 C 63.18068 134.66801 64.372834 128.32998 53.084412 118.03823 C 59.96737 121.615974 63.59482 125.81813 65.500634 129.11474 Z" fill="#38d142"/><path d="M 65.50063 129.11474 C 64.968258 122.763095 63.247867 112.30791 57.761863 104.45674 C 63.08696 107.55805 66.301486 113.33439 68.239523 119.00991 C 69.213848 114.32166 70.986435 109.72615 74.166596 107.052315 C 71.55967 112.616606 71.387207 120.55121 71.74683 126.493825 C 72.890546 122.6277 74.732556 118.40688 77.60724 116.28773 C 72.82354 122.256036 73.925147 134.66801 73.925147 134.66801 L 63.18068 134.66801 C 63.18068 134.66801 64.372834 128.32998 53.084412 118.03823 C 59.96737 121.615974 63.59482 125.81813 65.500634 129.11474 Z" stroke="#38d142" stroke-linecap="round" stroke-linejoin="round" stroke-width="1"/><path d="M 15 213.59961 L 15 213.59961 L 15 309.44921 C 15 309.44921 15 309.44921 15 309.44921 C 15 323.8652 26.256453 335.6521 40.459443 336.5 L 139.54056 336.5 C 153.74355 335.6521 165 323.8652 165 309.44921 L 165 213.59961 C 165 198.63291 152.86709 186.5 137.90039 186.5 L 42.09961 186.5 C 27.132909 186.5 15.000001 198.63291 15 213.59961 C 15 213.59961 15 213.59961 15 213.59961 Z" stroke="#a5a5a5" stroke-linecap="round" stroke-linejoin="round" stroke-width="4"/><path d="M 116.774414 255.62921 L 89.82184 213.3838 L 62.86927 255.62921 C 54.586587 269.74237 53.94532 287.70646 65.979075 299.74015 C 79.147076 312.90822 100.496607 312.90822 113.66461 299.74015 C 125.69836 287.70646 125.94913 270.09918 116.774414 255.62921 Z" stroke="#38d142" stroke-linecap="round" stroke-linejoin="round" stroke-width="4"/><path d="M 116.086376 275.077 C 115.64852 275.78773 115.096775 276.4562 114.431144 277.06044 C 110.54078 280.59203 104.233253 280.59203 100.34289 277.06044 C 99.63173 276.41487 99.050574 275.69599 98.599414 274.93058 C 98.148257 275.69599 97.5671 276.41487 96.85594 277.06044 C 92.965577 280.59203 86.65805 280.59203 82.767686 277.06044 C 82.175823 276.52316 81.674003 275.9351 81.262226 275.31171 C 80.85045 275.9351 80.34863 276.52316 79.75677 277.06044 C 75.8664 280.59203 69.558877 280.59203 65.66851 277.06044 C 64.96525 276.42204 64.389117 275.71194 63.94011 274.95606 C 63.158607 282.07078 65.221227 289.20393 71.04323 294.68203 C 81.43512 304.46018 98.283685 304.46018 108.675574 294.68203 C 114.496116 289.2053 116.8236 282.17388 116.08638 275.077 Z" fill="#38d142"/><path d="M 116.086376 275.077 C 115.64852 275.78773 115.096775 276.4562 114.431144 277.06044 C 110.54078 280.59203 104.233253 280.59203 100.34289 277.06044 C 99.63173 276.41487 99.050574 275.69599 98.599414 274.93058 C 98.148257 275.69599 97.5671 276.41487 96.85594 277.06044 C 92.965577 280.59203 86.65805 280.59203 82.767686 277.06044 C 82.175823 276.52316 81.674003 275.9351 81.262226 275.31171 C 80.85045 275.9351 80.34863 276.52316 79.75677 277.06044 C 75.8664 280.59203 69.558877 280.59203 65.66851 277.06044 C 64.96525 276.42204 64.389117 275.71194 63.94011 274.95606 C 63.158607 282.07078 65.221227 289.20393 71.04323 294.68203 C 81.43512 304.46018 98.283685 304.46018 108.675574 294.68203 C 114.496116 289.2053 116.8236 282.17388 116.08638 275.077 Z" stroke="#38d142" stroke-linecap="round" stroke-linejoin="round" stroke-width="1"/></g></g></svg>
