<?xml version="1.0" encoding="UTF-8" standalone="no"?>
<!DOCTYPE svg PUBLIC "-//W3C//DTD SVG 1.1//EN" "http://www.w3.org/Graphics/SVG/1.1/DTD/svg11.dtd">
<svg xmlns="http://www.w3.org/2000/svg" xmlns:xl="http://www.w3.org/1999/xlink" version="1.1" viewBox="0 0 500 350" width="500pt" height="350pt" xmlns:dc="http://purl.org/dc/elements/1.1/"><metadata> Produced by OmniGraffle 6.5.3 <dc:date>2016-07-09 13:27:14 +0000</dc:date></metadata><defs/><g stroke="none" stroke-opacity="1" stroke-dasharray="none" fill="none" fill-opacity="1"><title>Smart Garage</title><g><title>Layer 1</title><path d="M 335 212.09961 L 335 212.09961 L 335 307.94921 C 335 307.94921 335 307.94921 335 307.94921 C 335 322.3652 346.25645 334.1521 360.45944 335 L 459.54056 335 C 473.74355 334.1521 485 322.3652 485 307.94921 L 485 212.09961 C 485 197.13291 472.8671 185 457.9004 185 L 362.0996 185 C 347.1329 185 335 197.13291 335 212.09961 C 335 212.09961 335 212.09961 335 212.09961 Z" stroke="#aaa" stroke-linecap="round" stroke-linejoin="round" stroke-width="4"/><path d="M 418.73096 288.11864 L 418.73096 210.29644 C 418.73096 200.57361 412.3852 198.92229 409.94939 198.88391 C 407.51358 198.84554 401.26904 200.57361 401.26904 210.29644 L 401.26904 288.11864 C 399.9268 288.88331 398.66349 289.83821 397.51836 290.98334 C 390.6249 297.87676 390.6249 309.0532 397.51836 315.94662 C 404.41178 322.84007 415.58822 322.84007 422.48163 315.94662 C 429.3751 309.0532 429.3751 297.87676 422.48163 290.98334 C 421.3365 289.83821 420.0732 288.88331 418.73096 288.11864 Z" stroke="#38d142" stroke-linecap="round" stroke-linejoin="round" stroke-width="4"/><line x1="417.9312" y1="210.14496" x2="411.51843" y2="210.14496" stroke="#38d142" stroke-linecap="round" stroke-linejoin="round" stroke-width="4"/><line x1="417.9312" y1="217.23096" x2="411.51843" y2="217.23096" stroke="#38d142" stroke-linecap="round" stroke-linejoin="round" stroke-width="4"/><line x1="417.9312" y1="224.31695" x2="411.51843" y2="224.31695" stroke="#38d142" stroke-linecap="round" stroke-linejoin="round" stroke-width="4"/><line x1="417.9312" y1="231.40295" x2="411.51843" y2="231.40295" stroke="#38d142" stroke-linecap="round" stroke-linejoin="round" stroke-width="4"/><circle cx="410" cy="303.88759" r="11.874101" fill="#38d142"/><circle cx="410" cy="303.88759" r="11.874101" stroke="#38d142" stroke-linecap="round" stroke-linejoin="round" stroke-width="1"/><line x1="409.87346" y1="251.01597" x2="409.87346" y2="303.13777" stroke="#38d142" stroke-linecap="round" stroke-linejoin="round" stroke-width="8"/><path d="M 335 42.09961 L 335 42.099608 L 335 137.94921 C 335 137.94921 335 137.94921 335 137.94921 C 335 152.3652 346.25645 164.1521 360.45944 165 L 459.54056 165 C 473.74355 164.1521 485 152.3652 485 137.94921 L 485 42.09961 C 485 27.132908 472.8671 15 457.9004 15 L 362.0996 15 C 347.1329 15 335 27.132908 335 42.099608 C 335 42.099608 335 42.099608 335 42.099608 Z" stroke="#aaa" stroke-linecap="round" stroke-linejoin="round" stroke-width="4"/><path d="M 410 41.634809 L 364.72837 75.330913 L 364.72837 138.36519 L 455.27163 138.36519 L 455.27163 75.330913 Z" stroke="#38d142" stroke-linecap="round" stroke-linejoin="round" stroke-width="4"/><rect x="375.89537" y="86.423543" width="68.088533" height="51.94165" stroke="#38d142" stroke-linecap="round" stroke-linejoin="round" stroke-width="4"/><line x1="376.34809" y1="119.50201" x2="443.6821" y2="119.50201" stroke="#38d142" stroke-linecap="round" stroke-linejoin="round" stroke-width="4"/><line x1="383.9839" y1="111.72661" x2="436.499" y2="111.72661" stroke="#38d142" stroke-linecap="square" stroke-linejoin="round" stroke-width="4"/><line x1="383.9839" y1="102.636445" x2="436.499" y2="102.636445" stroke="#38d142" stroke-linecap="square" stroke-linejoin="round" stroke-width="4"/><line x1="383.9839" y1="93.54628" x2="436.499" y2="93.54628" stroke="#38d142" stroke-linecap="square" stroke-linejoin="round" stroke-width="4"/><path d="M 15 119.43555 L 15 119.435545 L 15 230.62108 C 15 230.62108 15 230.62108 15 230.62108 C 15 247.34363 28.057485 261.01643 44.532954 262 L 159.46704 262 C 175.94251 261.01644 189 247.34363 189 230.62108 L 189 119.43555 C 189 102.07417 174.92583 88 157.56445 88 L 46.435547 88 C 29.074174 88 15.000001 102.07417 15 119.435545 C 15 119.435545 15 119.435545 15 119.435545 Z" fill="#333"/><path d="M 15 119.43555 L 15 119.435545 L 15 230.62108 C 15 230.62108 15 230.62108 15 230.62108 C 15 247.34363 28.057485 261.01643 44.532954 262 L 159.46704 262 C 175.94251 261.01644 189 247.34363 189 230.62108 L 189 119.43555 C 189 102.07417 174.92583 88 157.56445 88 L 46.435547 88 C 29.074174 88 15.000001 102.07417 15 119.435545 C 15 119.435545 15 119.435545 15 119.435545 Z" stroke="#38d142" stroke-linecap="round" stroke-linejoin="round" stroke-width="8"/><path d="M 127.542006 151.48065 L 156.17224 151.477 C 159.65863 151.38645 163.11784 150.01079 165.7786 147.35002 C 171.28762 141.84103 171.28762 132.9092 165.7786 127.400206 C 163.46067 125.08226 160.53678 123.739605 157.51685 123.37223 C 157.943455 120.52311 157.060015 117.515694 154.86653 115.322224 C 152.17321 112.62889 148.2527 111.91069 144.904905 113.16764 C 144.250804 112.109713 143.46491 111.11015 142.54723 110.192474 C 136.1573 103.80251 125.79718 103.80251 119.40725 110.192474 C 115.71949 113.880215 114.16 118.89028 114.72878 123.6964 L 114.72878 123.6964 C 112.34057 124.297594 110.079025 125.532195 108.211024 127.400206 C 106.27989 129.33133 105.0257 131.68304 104.448447 134.16048 Z" fill="#38d142"/><path d="M 85.77353 123.31463 L 137.45742 162.07755 L 137.45742 172.41433 L 114.06508 154.84989 L 85.77353 133.65141 L 34.089637 172.41433 L 34.089637 162.07755 Z" fill="#38d142"/><path d="M 52.792197 133.65141 L 65.099973 133.65141 L 65.059035 141.872656 L 52.792197 151.61337 Z" fill="#38d142"/><path d="M 41.842221 169.46216 L 85.82335 136.83765 L 129.70484 169.46216 L 129.70484 235.90002 L 99.010947 235.90003 L 99.010947 192.40003 L 71.823447 192.40003 L 71.823447 235.90003 L 41.842221 235.90002 Z" fill="#38d142"/><path d="M 333 90 L 250 90 L 250 136 L 250 160 L 193 160" stroke="#38d142" stroke-linecap="butt" stroke-linejoin="round" stroke-width="8"/><path d="M 333 254 L 320 254 L 250 254 L 250 215 L 250 190 L 193 190" stroke="#38d142" stroke-linecap="butt" stroke-linejoin="round" stroke-width="8"/></g></g></svg>
