<?xml version="1.0"?>
<!DOCTYPE svg PUBLIC "-//W3C//DTD SVG 1.1//EN" "http://www.w3.org/Graphics/SVG/1.1/DTD/svg11.dtd">
<svg xmlns="http://www.w3.org/2000/svg" xmlns:xl="http://www.w3.org/1999/xlink" version="1.1" viewBox="108 56 1329 429" width="1329pt" height="429pt"><metadata xmlns:dc="http://purl.org/dc/elements/1.1/"><dc:date>2013-08-30 17:09Z</dc:date><!-- Produced by OmniGraffle Professional 5.4.4 --></metadata><defs><style type="text/css">@import url(http://fonts.googleapis.com/css?family=Nunito:300);</style></defs><g stroke="none" stroke-opacity="1" stroke-dasharray="none" fill="none" fill-opacity="1"><title>Logo</title><g><title>text</title><text transform="translate(463.6207 188.30466)" fill="#999"><tspan font-family="Nunito" font-size="220" font-weight="300" fill="#999" x=".42285156" y="214" textLength="126.82422">g</tspan><tspan font-family="Nunito" font-size="220" font-weight="300" fill="#999" x="127.24707" y="214" textLength="78.16211">r</tspan><tspan font-family="Nunito" font-size="220" font-weight="300" fill="#999" x="204.97949" y="214" textLength="123.60156">e</tspan><tspan font-family="Nunito" font-size="220" font-weight="300" fill="#999" x="328.58105" y="214" textLength="123.60156">e</tspan><tspan font-family="Nunito" font-size="220" font-weight="300" fill="#999" x="452.18262" y="214" textLength="126.39453">n</tspan></text><text transform="translate(477.53594 70.296543)" fill="#3c3"><tspan font-family="Nunito" font-size="220" font-weight="300" fill="#3c3" x=".38085938" y="214" textLength="944.2383">automate</tspan></text></g><g><title>Layer 2</title><path d="M 364.5865 212.9377 L 435.99812 212.9286 C 444.69412 212.70274 453.32234 209.27147 459.959 202.63479 C 473.69998 188.89387 473.69998 166.61544 459.959 152.87452 C 454.17744 147.09294 446.88446 143.743984 439.35194 142.82765 C 440.416 135.721176 438.21246 128.21985 432.74132 122.74874 C 426.02344 116.030825 416.24462 114.23945 407.8943 117.37462 C 406.2628 114.735865 404.30257 112.242686 402.01362 109.95375 C 386.0754 94.01543 360.23443 94.01543 344.2962 109.95375 C 335.09792 119.15198 331.20813 131.64845 332.62682 143.63622 L 332.62682 143.63622 C 326.66998 145.13576 321.02906 148.21519 316.36976 152.87452 C 311.553 157.69126 308.4247 163.55708 306.98487 169.73648 Z" fill="#3c3"/><path d="M 267.86951 145.47545 L 417.79189 257.91723 L 417.79189 287.9017 L 349.9364 236.95153 L 267.86951 175.45993 L 117.94714 287.9017 L 117.94714 257.91723 Z" fill="#3c3"/><path d="M 177.91609 175.45993 L 207.90056 175.45993 L 207.90056 205.4444 L 177.91609 220.43664 Z" fill="#3c3"/><path d="M 140.435495 280.40559 L 155.42773 280.40559 L 155.42773 460.31243 L 380.3113 460.31243 L 380.3113 280.40559 L 395.30353 280.40559 L 395.30353 475.30467 L 140.435495 475.30467 Z" fill="#3c3"/><rect x="230.38892" y="332.87842" width="74.961187" height="132.243136" fill="#3c3"/></g></g></svg>
